<svg width="108" height="90" viewBox="0 0 108 90" fill="none" xmlns="http://www.w3.org/2000/svg">
    <path d="M28.925 0H89L59.3337 58H28.925C21.2536 58 13.8964 54.9447 8.47193 49.5061C3.04744 44.0675 0 36.6913 0 29C0 21.3087 3.04744 13.9325 8.47193 8.4939C13.8964 3.05535 21.2536 0 28.925 0V0Z" fill="#002448"/>
    <path d="M78.75 90H18L47.9996 32H78.75C86.5076 32 93.9475 35.0553 99.4329 40.4939C104.918 45.9325 108 53.3087 108 61C108 68.6913 104.918 76.0675 99.4329 81.5061C93.9475 86.9447 86.5076 90 78.75 90V90Z" fill="#0B3560"/>
</svg>
